HIERARCHY
ROOT Hips
{
	OFFSET 0.000000 0.000000 0.000000 
	CHANNELS 6 Xposition Yposition Zposition Yrotation Zrotation Xrotation 
	JOINT Lumbar
	{
		OFFSET 0.000000 0.000000 0.000000 
		CHANNELS 3 Zrotation Xrotation Yrotation
		JOINT Neck
		{
			OFFSET 0.000000 0.445665 0.000000 
			CHANNELS 3 Zrotation Xrotation Yrotation
			End Site
			{
				OFFSET 0.000000 0.227535 0.000000 
			}
		}
		JOINT RightShoulder
		{
			OFFSET 0.019635 0.377685 0.194865 
			CHANNELS 3 Zrotation Xrotation Yrotation
			JOINT RightElbow
			{
				OFFSET 0.000000 -0.243375 0.000000 
				CHANNELS 2 Zrotation Yrotation
				JOINT RightWrist
				{
					OFFSET 0.000000 -0.264825 0.000000 
					CHANNELS 2 Zrotation Xrotation
					End Site
					{
						OFFSET 0.006600 -0.176220 0.000990 
					}
				}
			}
		}
		JOINT LeftShoulder
		{
			OFFSET 0.019635 0.377685 -0.194865 
			CHANNELS 3 Zrotation Xrotation Yrotation
			JOINT LeftElbow
			{
				OFFSET 0.000000 -0.243375 0.000000 
				CHANNELS 2 Zrotation Yrotation
				JOINT LeftWrist
				{
					OFFSET 0.000000 -0.264825 0.000000 
					CHANNELS 2 Zrotation Xrotation
					End Site
					{
						OFFSET 0.006600 -0.176220 -0.000990 
					}
				}
			}
		}
	}
	JOINT RightHip
	{
		OFFSET 0.052140 -0.069960 0.075570 
		CHANNELS 3 Zrotation Xrotation Yrotation
		JOINT RightKnee
		{
			OFFSET 0.000000 -0.402270 0.000000 
			CHANNELS 1 Zrotation
			JOINT RightAnkle
			{
				OFFSET 0.000000 -0.404085 0.000000 
				CHANNELS 3 Zrotation Xrotation Yrotation
				End Site
				{
					OFFSET 0.204105 -0.089430 0.008415 
				}
			}
		}
	}
	JOINT LeftHip
	{
		OFFSET 0.052140 -0.069960 -0.075570 
		CHANNELS 3 Zrotation Xrotation Yrotation
		JOINT LeftKnee
		{
			OFFSET 0.000000 -0.402270 0.000000 
			CHANNELS 1 Zrotation
			JOINT LeftAnkle
			{
				OFFSET 0.000000 -0.404085 0.000000 
				CHANNELS 3 Zrotation Xrotation Yrotation
				End Site
				{
					OFFSET 0.204105 -0.089430 -0.008415 
				}
			}
		}
	}
}
MOTION
Frames: 34
Frame Time: 0.02
0.00771 0.95417 -0.01993 178.50284 0 -4.11119 4.1795 4.28818 -11.26514 -36.66376 9.47741 2.35562 143.54841 -45.66305 35.45212 135.94265 119.30471 -44.13816 -7.48786 29.60855 34.4283 13.5555 73.51217 -76.65698 -18.53847 2.74215 -4.39113 3.66579 2.97842 -4.85593 -2.84822 -3.66275 -7.19521 -1.76682 7.75957 -1.83387 -7.27848 5.71698 1.25422 -1.95173
0.00781 0.95417 -0.01915 178.42766 0 -4.10739 4.13967 4.2769 -11.27394 -36.45196 9.5122 2.3664 143.1382 -45.72243 35.26591 136.1552 120.99172 -44.45454 -5.83982 31.00651 32.92986 9.68866 66.18193 -79.39502 -18.50448 3.23653 -4.37841 3.61407 3.014 -4.84127 -2.86652 -3.65972 -7.17168 -1.80039 7.70971 -1.76725 -7.23014 5.70729 1.26042 -1.94193
0.00782 0.95417 -0.0183 178.31387 0 -4.10459 4.10274 4.26604 -11.2693 -36.25941 9.53796 2.3848 142.73287 -45.79021 35.15159 136.42595 123.0073 -44.78912 -3.77029 32.66525 31.3102 5.72809 58.5924 -82.71134 -18.82065 3.84817 -4.36449 3.55623 3.07186 -4.82473 -2.88475 -3.65431 -7.1333 -1.8525 7.65597 -1.65966 -7.17045 5.70303 1.26764 -1.9321
0.00788 0.95417 -0.01748 178.21678 0 -4.10131 4.06363 4.25468 -11.27117 -36.05833 9.56837 2.39816 142.32679 -45.85458 34.99878 136.66322 124.7421 -45.11041 -2.00617 34.14817 29.73781 1.86289 51.23521 -85.63221 -18.91216 4.3799 -4.35082 3.5008 3.11972 -4.80953 -2.90266 -3.6499 -7.10119 -1.89582 7.60353 -1.57184 -7.11741 5.697 1.2749 -1.92052
0.00794 0.95417 -0.01667 178.12379 0 -4.09813 4.02807 4.24468 -11.27119 -35.85781 9.5971 2.41781 141.91526 -45.91662 34.87206 136.93322 127.00702 -45.45186 0.23207 35.89616 28.20141 -2.23757 43.37159 -89.12174 -19.28208 5.0268 -4.33859 3.44677 3.16621 -4.79196 -2.92224 -3.64587 -7.07109 -1.94048 7.55285 -1.48018 -7.05826 5.68793 1.28006 -1.91598
0.00796 0.95416 -0.01581 178.0126 0 -4.09499 3.98594 4.23193 -11.27153 -35.66044 9.62671 2.42654 141.51649 -45.98591 34.70703 137.14713 128.2698 -45.75595 1.59329 37.14506 26.56146 -5.86351 36.51569 -91.56625 -19.15864 5.45998 -4.32287 3.38842 3.22143 -4.7792 -2.93817 -3.64045 -7.03316 -1.98694 7.49764 -1.3859 -7.00904 5.68657 1.28977 -1.89707
0.00787 0.95414 -0.01483 177.86447 0 -4.09165 3.92391 4.21145 -11.28102 -35.46329 9.66392 2.4003 141.14553 -46.07069 34.42523 137.19943 126.50172 -45.9534 0.33105 36.95224 24.6495 -8.17751 32.43896 -90.91579 -17.53812 5.28241 -4.2993 3.31991 3.2922 -4.77767 -2.94507 -3.63214 -6.97885 -2.03236 7.43103 -1.3006 -6.99042 5.70453 1.31244 -1.83667
0.00775 0.95412 -0.0138 177.69877 0 -4.08834 3.85542 4.18814 -11.29049 -35.26921 9.70176 2.36332 140.78838 -46.16281 34.10177 137.19198 123.7462 -46.11253 -1.81072 36.24506 22.64042 -10.00354 29.40125 -89.20411 -15.41821 4.88444 -4.27201 3.24728 3.37164 -4.78149 -2.94813 -3.62247 -6.91703 -2.07918 7.36003 -1.21295 -6.9821 5.73019 1.33953 -1.76222
0.00763 0.9541 -0.0128 177.53834 0 -4.08505 3.79058 4.16618 -11.29673 -35.07576 9.73733 2.33326 140.4286 -46.25348 33.79191 137.206 121.56782 -46.28883 -3.485 35.76959 20.6847 -12.03981 25.93278 -88.02079 -13.557 4.58107 -4.24539 3.17631 3.44927 -4.78457 -2.95223 -3.61316 -6.85743 -2.12641 7.29094 -1.12212 -6.96874 5.75278 1.36423 -1.69535
0.00754 0.95408 -0.01178 177.38737 0 -4.08164 3.72272 4.14412 -11.31598 -34.87393 9.78092 2.29504 140.05297 -46.33721 33.50395 137.2442 118.87081 -46.46713 -5.42901 35.31126 18.68336 -14.13544 22.27573 -86.66386 -11.57022 4.30306 -4.22289 3.10584 3.51875 -4.78059 -2.95917 -3.60478 -6.80175 -2.17009 7.22192 -1.04742 -6.95646 5.77378 1.39065 -1.62323
0.0074 0.95405 -0.01077 177.21386 0 -4.0785 3.65968 4.1214 -11.30856 -34.6907 9.80813 2.27092 139.71438 -46.4361 33.16346 137.21948 117.00012 -46.63151 -7.02768 34.69287 16.75875 -15.98118 19.26707 -85.40834 -9.72666 3.92117 -4.19115 3.03365 3.60689 -4.7924 -2.95944 -3.59429 -6.73706 -2.22099 7.15195 -0.9396 -6.9446 5.79979 1.41445 -1.559
0.00711 0.95402 -0.00976 176.97559 0 -4.07589 3.61063 4.09913 -11.22544 -34.55231 9.78944 2.29059 139.46788 -46.58297 32.65394 137.01403 117.78438 -46.77022 -7.44129 33.7453 15.04357 -17.33433 17.7523 -84.69366 -8.35756 3.28173 -4.13288 2.95589 3.74475 -4.84823 -2.94113 -3.57731 -6.64278 -2.29346 7.07889 -0.73689 -6.93071 5.83843 1.43045 -1.51722
0.00676 0.95398 -0.00876 176.71679 0 -4.0736 3.56683 4.07599 -11.11594 -34.43361 9.75441 2.3245 139.25956 -46.74334 32.09878 136.75073 119.40983 -46.89549 -7.48181 32.65574 13.41494 -18.43866 16.8641 -84.11443 -7.15634 2.54953 -4.06583 2.87694 3.90071 -4.91939 -2.91648 -3.55846 -6.54085 -2.37264 7.00536 -0.50207 -6.91705 5.88169 1.44356 -1.48427
0.00645 0.95395 -0.00776 176.47199 0 -4.07129 3.52114 4.05224 -11.01999 -34.30947 9.72722 2.3502 139.03803 -46.89224 31.58685 136.52817 120.56005 -47.02465 -7.70642 31.63797 11.76387 -19.6041 15.71738 -83.46953 -5.90457 1.87513 -4.00405 2.79975 4.04832 -4.98244 -2.89546 -3.54116 -6.44697 -2.44733 6.93306 -0.28459 -6.90377 5.92243 1.45762 -1.4492
0.00612 0.95391 -0.00672 176.20656 0 -4.06842 3.47299 4.03272 -10.91751 -34.17026 9.69823 2.38229 138.79895 -47.06381 30.97952 136.24386 122.06138 -47.16197 -7.90157 30.57057 10.03604 -20.96832 14.49344 -82.80556 -4.52607 1.12633 -3.93664 2.7172 4.19762 -5.0507 -2.87109 -3.52089 -6.3341 -2.52821 6.85626 -0.05468 -6.88882 5.96531 1.47332 -1.40609
0.00581 0.95388 -0.00578 175.97977 0 -4.06682 3.43146 4.0041 -10.82225 -34.06753 9.66921 2.40531 138.60601 -47.19145 30.55941 136.07356 123.05284 -47.27943 -8.0562 29.58099 8.49239 -21.87036 13.56883 -82.22698 -3.45889 0.51424 -3.87906 2.64568 4.34652 -5.11147 -2.8523 -3.50634 -6.25836 -2.59773 6.78887 0.15601 -6.87727 6.00462 1.48495 -1.38148
0.00557 0.95387 -0.0051 175.86238 0 -4.06836 3.40546 3.95168 -10.75435 -34.05684 9.64311 2.39366 138.52476 -47.19287 30.67754 136.24685 122.35809 -47.34684 -8.20296 28.83071 7.41651 -21.51848 13.28594 -81.85783 -3.20364 0.29524 -3.84953 2.60405 4.499 -5.14947 -2.84984 -3.50853 -6.29338 -2.63455 6.74665 0.31338 -6.8752 6.03369 1.48514 -1.41046
0.00536 0.95387 -0.00451 175.78523 0 -4.0712 3.38624 3.88994 -10.69446 -34.08285 9.61771 2.37353 138.48959 -47.14986 30.98386 136.5345 121.13924 -47.39457 -8.3153 28.1684 6.52757 -20.71913 13.28308 -81.57415 -3.25953 0.21927 -3.83045 2.57374 4.64884 -5.1791 -2.85332 -3.51649 -6.36512 -2.6596 6.7141 0.44875 -6.87653 6.05883 1.4815 -1.45697
0.00513 0.95387 -0.0039 175.69113 0 -4.07362 3.36493 3.83176 -10.63019 -34.0946 9.59268 2.36144 138.43762 -47.12824 31.19775 136.76042 120.21334 -47.4506 -8.43035 27.47483 5.56589 -20.1531 13.16785 -81.25196 -3.17993 0.08377 -3.80739 2.53879 4.79369 -5.21141 -2.85453 -3.5215 -6.41563 -2.68991 6.67773 0.58934 -6.87609 6.08522 1.48015 -1.49246
0.00491 0.95386 -0.00324 175.59016 0 -4.07537 3.33964 3.77641 -10.56795 -34.09693 9.56426 2.33242 138.37015 -47.10212 31.43967 137.02525 119.08663 -47.50911 -8.58652 26.73807 4.5539 -19.45391 13.01343 -80.93164 -3.08127 -0.07753 -3.78075 2.5016 4.96474 -5.2489 -2.85379 -3.52779 -6.48412 -2.72105 6.63889 0.75172 -6.8764 6.11402 1.47628 -1.54112
0.00469 0.95386 -0.00269 175.51393 0 -4.07878 3.32412 3.71295 -10.50397 -34.12724 9.54317 2.33616 138.34459 -47.07455 31.66789 137.23728 118.24072 -47.55765 -8.65489 26.11543 3.6921 -18.92618 12.99738 -80.62708 -3.09366 -0.15072 -3.76419 2.47187 5.08106 -5.27354 -2.85849 -3.53284 -6.52513 -2.74728 6.60753 0.86243 -6.87623 6.13682 1.47692 -1.56641
0.00449 0.95389 -0.00239 175.49141 0 -4.08678 3.3344 3.62962 -10.43127 -34.22674 9.54335 2.43485 138.43024 -47.05447 31.81787 137.27289 118.31383 -47.58622 -8.47912 25.77684 3.18141 -19.00917 13.30339 -80.33772 -3.34008 -0.00753 -3.77289 2.45918 5.04055 -5.26358 -2.87781 -3.53265 -6.47121 -2.76543 6.59411 0.84124 -6.87153 6.14378 1.4895 -1.52287
0.00429 0.95394 -0.0022 175.49345 0 -4.09634 3.35417 3.53843 -10.35701 -34.35294 9.55075 2.56625 138.55506 -47.03424 31.94693 137.25219 118.68006 -47.605 -8.22009 25.55282 2.81842 -19.27678 13.7342 -80.06223 -3.68593 0.2184 -3.79143 2.45375 4.94597 -5.24113 -2.90223 -3.53107 -6.39013 -2.77853 6.58793 0.76778 -6.86662 6.14485 1.50694 -1.4553
0.0041 0.95398 -0.00197 175.48746 0 -4.10499 3.36921 3.45068 -10.28488 -34.46616 9.55411 2.68103 138.65725 -47.01364 32.08187 137.25933 118.89858 -47.62652 -8.00729 25.28314 2.39902 -19.44231 14.09896 -79.78448 -3.98336 0.40164 -3.80555 2.44552 4.88048 -5.22507 -2.92369 -3.53043 -6.32836 -2.79216 6.57864 0.71434 -6.86343 6.14877 1.52322 -1.39849
0.00388 0.95402 -0.00173 175.4695 0 -4.11455 3.38618 3.36309 -10.20708 -34.58397 9.56063 2.80301 138.78122 -46.99349 32.2379 137.26102 119.16286 -47.65454 -7.75662 24.98858 1.94064 -19.66675 14.51309 -79.49213 -4.30598 0.61124 -3.81984 2.43562 4.79663 -5.20566 -2.9481 -3.52875 -6.23916 -2.81277 6.56892 0.67531 -6.85372 6.15188 1.53531 -1.34236
0.00372 0.95406 -0.00153 175.48193 0 -4.12252 3.40137 3.27352 -10.14056 -34.69844 9.56237 2.91779 138.8688 -46.97275 32.34355 137.25908 119.40528 -47.66699 -7.56682 24.77292 1.59651 -19.82079 14.8506 -79.23307 -4.59492 0.7838 -3.83595 2.43071 4.73722 -5.19042 -2.96744 -3.52873 -6.19929 -2.81788 6.56169 0.59488 -6.85723 6.15524 1.55686 -1.27963
0.00368 0.95406 -0.00142 175.57102 0 -4.1261 3.40856 3.17959 -10.10601 -34.79396 9.54825 3.0054 138.84367 -46.95224 32.30533 137.26147 119.54354 -47.63829 -7.55436 24.73888 1.52708 -19.71507 14.94097 -79.05582 -4.77121 0.83258 -3.85469 2.43839 4.76709 -5.18951 -2.97207 -3.5347 -6.3095 -2.78065 6.55952 0.40629 -6.89955 6.1615 1.60736 -1.19771
0.0037 0.95406 -0.00134 175.68987 0 -4.12796 3.41372 3.08419 -10.08276 -34.8856 9.52923 3.08453 138.7808 -46.93107 32.21762 137.26148 119.64836 -47.59432 -7.60755 24.78154 1.56748 -19.53793 14.94933 -78.91241 -4.90761 0.84074 -3.87485 2.45067 4.82187 -5.19329 -2.97129 -3.5422 -6.46879 -2.72816 6.55953 0.17905 -6.95475 6.16808 1.66652 -1.11102
0.00369 0.95406 -0.00125 175.7957 0 -4.13037 3.42026 2.98996 -10.05396 -34.98096 9.51303 3.16712 138.73668 -46.90913 32.15856 137.26159 119.75102 -47.55798 -7.63921 24.79391 1.55961 -19.40936 14.99715 -78.75746 -5.05779 0.86763 -3.89429 2.46042 4.85963 -5.19511 -2.97258 -3.54824 -6.60068 -2.68322 6.55852 -0.02589 -7.0025 6.17401 1.71903 -1.03106
0.00368 0.95406 -0.00117 175.90029 0 -4.13379 3.42524 2.89309 -10.02676 -35.06911 9.49458 3.25253 138.68725 -46.8914 32.0745 137.26386 119.93131 -47.51898 -7.63611 24.79056 1.54985 -19.21999 15.04054 -78.58685 -5.23051 0.89642 -3.91441 2.47233 4.91948 -5.1958 -2.97569 -3.5573 -6.75306 -2.63559 6.55797 -0.2521 -7.05687 6.18186 1.78298 -0.93151
0.00369 0.95406 -0.00108 176.01419 0 -4.13468 3.43282 2.80176 -9.99904 -35.17089 9.47955 3.3296 138.63933 -46.8651 32.02901 137.26191 119.94516 -47.48126 -7.71806 24.83729 1.56843 -19.13663 15.07169 -78.45669 -5.34483 0.91043 -3.93332 2.48071 4.94003 -5.20008 -2.97368 -3.56067 -6.87487 -2.58991 6.55679 -0.4432 -7.10067 6.18585 1.82533 -0.8713
0.00374 0.95405 -0.00096 176.1465 0 -4.12884 3.44845 2.72396 -9.96615 -35.31183 9.47546 3.3857 138.6045 -46.81271 32.11918 137.24791 119.44468 -47.45875 -8.05459 24.99793 1.63574 -19.3735 15.09079 -78.42992 -5.31234 0.8939 -3.94857 2.47844 4.84548 -5.21368 -2.95847 -3.5459 -6.89961 -2.55431 6.55391 -0.52154 -7.11073 6.17922 1.8038 -0.92676
0.0038 0.95404 -0.00083 176.28702 0 -4.12051 3.46665 2.6523 -9.93251 -35.46633 9.4749 3.43355 138.57184 -46.75252 32.24682 137.23016 118.78631 -47.43749 -8.46881 25.20703 1.72785 -19.71604 15.09943 -78.44262 -5.22112 0.8635 -3.96251 2.47235 4.71094 -5.23071 -2.93833 -3.52571 -6.89218 -2.52106 6.55014 -0.56401 -7.10994 6.16869 1.7606 -1.02108
0.00386 0.95404 -0.00071 176.42368 0 -4.1134 3.48339 2.57917 -9.89987 -35.61412 9.47249 3.48502 138.53882 -46.69719 32.34622 137.21509 118.24241 -47.40946 -8.82363 25.39674 1.80915 -20.00368 15.11102 -78.43723 -5.15314 0.83868 -3.97699 2.46786 4.59525 -5.24587 -2.92068 -3.50939 -6.89999 -2.48612 6.54637 -0.62695 -7.11507 6.15993 1.72875 -1.09374
